<mxfile host="65bd71144e">
    <diagram id="gVT8hBkOPq-GDgyE2YOR" name="Page-1">
        <mxGraphModel dx="1980" dy="1120" grid="1" gridSize="10" guides="1" tooltips="1" connect="1" arrows="1" fold="1" page="1" pageScale="1" pageWidth="1654" pageHeight="1169" math="0" shadow="0">
            <root>
                <mxCell id="0"/>
                <mxCell id="1" parent="0"/>
                <mxCell id="5" value="" style="edgeStyle=none;html=1;" edge="1" parent="1" source="2" target="4">
                    <mxGeometry relative="1" as="geometry"/>
                </mxCell>
                <mxCell id="2" value="Welder, Emp" style="shape=parallelogram;perimeter=parallelogramPerimeter;whiteSpace=wrap;html=1;fixedSize=1;" vertex="1" parent="1">
                    <mxGeometry x="402" y="110" width="120" height="60" as="geometry"/>
                </mxCell>
                <mxCell id="15" value="&lt;br&gt;Yes" style="edgeStyle=none;html=1;" edge="1" parent="1" source="4" target="8">
                    <mxGeometry x="-0.1429" relative="1" as="geometry">
                        <mxPoint x="462" y="300" as="targetPoint"/>
                        <mxPoint as="offset"/>
                    </mxGeometry>
                </mxCell>
                <mxCell id="19" value="&lt;br&gt;No" style="edgeStyle=none;html=1;exitX=0;exitY=0.5;exitDx=0;exitDy=0;entryX=1;entryY=0.5;entryDx=0;entryDy=0;" edge="1" parent="1" source="4" target="90">
                    <mxGeometry y="-10" relative="1" as="geometry">
                        <mxPoint as="offset"/>
                    </mxGeometry>
                </mxCell>
                <mxCell id="4" value="is 7-8&lt;br&gt;digits" style="rhombus;whiteSpace=wrap;html=1;" vertex="1" parent="1">
                    <mxGeometry x="422" y="200" width="80" height="80" as="geometry"/>
                </mxCell>
                <mxCell id="20" style="edgeStyle=none;html=1;exitX=0;exitY=0.5;exitDx=0;exitDy=0;entryX=0.5;entryY=1;entryDx=0;entryDy=0;" edge="1" parent="1" source="8" target="90">
                    <mxGeometry relative="1" as="geometry">
                        <Array as="points">
                            <mxPoint x="242" y="390"/>
                        </Array>
                    </mxGeometry>
                </mxCell>
                <mxCell id="21" value="No" style="edgeLabel;html=1;align=center;verticalAlign=middle;resizable=0;points=[];" vertex="1" connectable="0" parent="20">
                    <mxGeometry x="-0.3872" relative="1" as="geometry">
                        <mxPoint x="32" as="offset"/>
                    </mxGeometry>
                </mxCell>
                <mxCell id="23" value="&lt;br&gt;Yes" style="edgeStyle=none;html=1;" edge="1" parent="1" source="8" target="22">
                    <mxGeometry x="-0.1429" relative="1" as="geometry">
                        <mxPoint as="offset"/>
                    </mxGeometry>
                </mxCell>
                <mxCell id="8" value="is valid&lt;br&gt;type" style="rhombus;whiteSpace=wrap;html=1;" vertex="1" parent="1">
                    <mxGeometry x="422" y="350" width="80" height="80" as="geometry"/>
                </mxCell>
                <mxCell id="27" value="&lt;br&gt;Yes" style="edgeStyle=none;html=1;" edge="1" parent="1" source="22" target="26">
                    <mxGeometry relative="1" as="geometry"/>
                </mxCell>
                <mxCell id="30" style="edgeStyle=none;html=1;exitX=0;exitY=0.5;exitDx=0;exitDy=0;entryX=0.5;entryY=1;entryDx=0;entryDy=0;" edge="1" parent="1" source="22" target="90">
                    <mxGeometry relative="1" as="geometry">
                        <mxPoint x="242" y="270" as="targetPoint"/>
                        <Array as="points">
                            <mxPoint x="242" y="540"/>
                        </Array>
                    </mxGeometry>
                </mxCell>
                <mxCell id="31" value="No" style="edgeLabel;html=1;align=center;verticalAlign=middle;resizable=0;points=[];" vertex="1" connectable="0" parent="30">
                    <mxGeometry x="-0.7407" y="-1" relative="1" as="geometry">
                        <mxPoint as="offset"/>
                    </mxGeometry>
                </mxCell>
                <mxCell id="22" value="is valid&lt;br&gt;type" style="rhombus;whiteSpace=wrap;html=1;" vertex="1" parent="1">
                    <mxGeometry x="422" y="500" width="80" height="80" as="geometry"/>
                </mxCell>
                <mxCell id="28" style="edgeStyle=none;html=1;exitX=0;exitY=0.5;exitDx=0;exitDy=0;entryX=0.5;entryY=1;entryDx=0;entryDy=0;" edge="1" parent="1" source="26" target="90">
                    <mxGeometry relative="1" as="geometry">
                        <mxPoint x="242" y="270" as="targetPoint"/>
                        <Array as="points">
                            <mxPoint x="242" y="700"/>
                        </Array>
                    </mxGeometry>
                </mxCell>
                <mxCell id="29" value="No" style="edgeLabel;html=1;align=center;verticalAlign=middle;resizable=0;points=[];" vertex="1" connectable="0" parent="28">
                    <mxGeometry x="-0.8087" y="-1" relative="1" as="geometry">
                        <mxPoint y="1" as="offset"/>
                    </mxGeometry>
                </mxCell>
                <mxCell id="33" value="" style="edgeStyle=elbowEdgeStyle;html=1;entryX=0;entryY=0.5;entryDx=0;entryDy=0;exitX=1;exitY=0.5;exitDx=0;exitDy=0;" edge="1" parent="1" source="26" target="32">
                    <mxGeometry relative="1" as="geometry"/>
                </mxCell>
                <mxCell id="34" value="Yes" style="edgeLabel;html=1;align=center;verticalAlign=middle;resizable=0;points=[];" vertex="1" connectable="0" parent="33">
                    <mxGeometry x="-0.8642" y="-2" relative="1" as="geometry">
                        <mxPoint as="offset"/>
                    </mxGeometry>
                </mxCell>
                <mxCell id="26" value="is not duplicate" style="rhombus;whiteSpace=wrap;html=1;" vertex="1" parent="1">
                    <mxGeometry x="422" y="660" width="80" height="80" as="geometry"/>
                </mxCell>
                <mxCell id="37" value="" style="edgeStyle=elbowEdgeStyle;html=1;" edge="1" parent="1" source="32" target="36">
                    <mxGeometry relative="1" as="geometry"/>
                </mxCell>
                <mxCell id="32" value="Find last Welder ID by&lt;br&gt;Welder or &lt;br&gt;Emp (Same Type)" style="whiteSpace=wrap;html=1;" vertex="1" parent="1">
                    <mxGeometry x="732" y="210" width="130" height="60" as="geometry"/>
                </mxCell>
                <mxCell id="41" value="" style="edgeStyle=elbowEdgeStyle;html=1;entryX=0;entryY=0.5;entryDx=0;entryDy=0;" edge="1" parent="1" source="36" target="86">
                    <mxGeometry relative="1" as="geometry">
                        <mxPoint x="1162" y="240" as="targetPoint"/>
                    </mxGeometry>
                </mxCell>
                <mxCell id="44" value="No" style="edgeLabel;html=1;align=center;verticalAlign=middle;resizable=0;points=[];" vertex="1" connectable="0" parent="41">
                    <mxGeometry x="-0.2319" y="-1" relative="1" as="geometry">
                        <mxPoint x="11" y="-1" as="offset"/>
                    </mxGeometry>
                </mxCell>
                <mxCell id="76" style="html=1;exitX=1;exitY=1;exitDx=0;exitDy=0;fontSize=9;entryX=0.5;entryY=0;entryDx=0;entryDy=0;" edge="1" parent="1" source="36" target="79">
                    <mxGeometry relative="1" as="geometry">
                        <mxPoint x="1072" y="340" as="targetPoint"/>
                        <mxPoint x="1017" y="260" as="sourcePoint"/>
                    </mxGeometry>
                </mxCell>
                <mxCell id="77" style="html=1;exitX=0;exitY=1;exitDx=0;exitDy=0;fontSize=9;entryX=0.5;entryY=0;entryDx=0;entryDy=0;" edge="1" parent="1" source="36" target="78">
                    <mxGeometry relative="1" as="geometry">
                        <mxPoint x="942" y="340" as="targetPoint"/>
                    </mxGeometry>
                </mxCell>
                <mxCell id="36" value="Welder ID" style="rhombus;whiteSpace=wrap;html=1;" vertex="1" parent="1">
                    <mxGeometry x="967" y="200" width="80" height="80" as="geometry"/>
                </mxCell>
                <mxCell id="84" value="" style="html=1;fontSize=12;elbow=vertical;entryX=0.5;entryY=0;entryDx=0;entryDy=0;" edge="1" parent="1" source="45" target="88">
                    <mxGeometry relative="1" as="geometry">
                        <mxPoint x="928.6700000000001" y="660" as="targetPoint"/>
                    </mxGeometry>
                </mxCell>
                <mxCell id="93" value="Yes" style="edgeLabel;html=1;align=center;verticalAlign=middle;resizable=0;points=[];fontSize=12;" vertex="1" connectable="0" parent="84">
                    <mxGeometry x="-0.2208" y="-1" relative="1" as="geometry">
                        <mxPoint x="1" y="43" as="offset"/>
                    </mxGeometry>
                </mxCell>
                <mxCell id="92" style="edgeStyle=orthogonalEdgeStyle;html=1;exitX=0;exitY=0.5;exitDx=0;exitDy=0;entryX=1;entryY=0.5;entryDx=0;entryDy=0;fontSize=12;elbow=vertical;" edge="1" parent="1" source="45" target="91">
                    <mxGeometry relative="1" as="geometry"/>
                </mxCell>
                <mxCell id="94" value="No" style="edgeLabel;html=1;align=center;verticalAlign=middle;resizable=0;points=[];fontSize=12;" vertex="1" connectable="0" parent="92">
                    <mxGeometry x="-0.2826" y="2" relative="1" as="geometry">
                        <mxPoint as="offset"/>
                    </mxGeometry>
                </mxCell>
                <mxCell id="45" value="Is valid&lt;br&gt;Emp" style="rhombus;whiteSpace=wrap;html=1;" vertex="1" parent="1">
                    <mxGeometry x="888.67" y="500" width="80" height="80" as="geometry"/>
                </mxCell>
                <mxCell id="80" style="edgeStyle=elbowEdgeStyle;html=1;exitX=0.5;exitY=1;exitDx=0;exitDy=0;entryX=0.5;entryY=0;entryDx=0;entryDy=0;fontSize=12;" edge="1" parent="1" source="78" target="45">
                    <mxGeometry relative="1" as="geometry"/>
                </mxCell>
                <mxCell id="78" value="&lt;font style=&quot;font-size: 12px;&quot;&gt;by Welder&lt;/font&gt;" style="rounded=0;whiteSpace=wrap;html=1;fontSize=9;" vertex="1" parent="1">
                    <mxGeometry x="868.67" y="360" width="120" height="60" as="geometry"/>
                </mxCell>
                <mxCell id="96" style="edgeStyle=orthogonalEdgeStyle;html=1;exitX=0.5;exitY=1;exitDx=0;exitDy=0;entryX=0.5;entryY=0;entryDx=0;entryDy=0;fontSize=12;elbow=vertical;" edge="1" parent="1" source="79" target="95">
                    <mxGeometry relative="1" as="geometry"/>
                </mxCell>
                <mxCell id="79" value="by Emp&lt;br&gt;(Same Type)" style="whiteSpace=wrap;html=1;" vertex="1" parent="1">
                    <mxGeometry x="1022" y="360" width="120" height="60" as="geometry"/>
                </mxCell>
                <mxCell id="85" value="Insert&lt;br&gt;Welder, Emp" style="whiteSpace=wrap;html=1;" vertex="1" parent="1">
                    <mxGeometry x="1102" y="770" width="120" height="60" as="geometry"/>
                </mxCell>
                <mxCell id="86" value="Valid&lt;br&gt;Welder, Emp" style="ellipse;whiteSpace=wrap;html=1;fillColor=#60a917;fontColor=#ffffff;strokeColor=#2D7600;" vertex="1" parent="1">
                    <mxGeometry x="1192" y="200" width="80" height="80" as="geometry"/>
                </mxCell>
                <mxCell id="89" style="edgeStyle=none;html=1;exitX=1;exitY=0.5;exitDx=0;exitDy=0;entryX=0;entryY=0.5;entryDx=0;entryDy=0;fontSize=12;elbow=vertical;" edge="1" parent="1" source="88" target="85">
                    <mxGeometry relative="1" as="geometry"/>
                </mxCell>
                <mxCell id="88" value="Valid&lt;br&gt;Welder, Emp" style="ellipse;whiteSpace=wrap;html=1;fillColor=#60a917;fontColor=#ffffff;strokeColor=#2D7600;" vertex="1" parent="1">
                    <mxGeometry x="888.67" y="760" width="80" height="80" as="geometry"/>
                </mxCell>
                <mxCell id="90" value="Invalid&lt;br&gt;Welder, Emp" style="ellipse;whiteSpace=wrap;html=1;fillColor=#a20025;fontColor=#ffffff;strokeColor=#6F0000;" vertex="1" parent="1">
                    <mxGeometry x="202" y="200" width="80" height="80" as="geometry"/>
                </mxCell>
                <mxCell id="91" value="Invalid&lt;br&gt;Welder, Emp" style="ellipse;whiteSpace=wrap;html=1;fillColor=#a20025;fontColor=#ffffff;strokeColor=#6F0000;" vertex="1" parent="1">
                    <mxGeometry x="732" y="500" width="80" height="80" as="geometry"/>
                </mxCell>
                <mxCell id="101" value="" style="edgeStyle=orthogonalEdgeStyle;html=1;fontSize=12;elbow=vertical;" edge="1" parent="1" source="95" target="100">
                    <mxGeometry relative="1" as="geometry"/>
                </mxCell>
                <mxCell id="102" value="No" style="edgeLabel;html=1;align=center;verticalAlign=middle;resizable=0;points=[];fontSize=12;" vertex="1" connectable="0" parent="101">
                    <mxGeometry x="0.2917" relative="1" as="geometry">
                        <mxPoint x="-12" as="offset"/>
                    </mxGeometry>
                </mxCell>
                <mxCell id="95" value="is&lt;br&gt;7 digits" style="rhombus;whiteSpace=wrap;html=1;fontSize=12;" vertex="1" parent="1">
                    <mxGeometry x="1042" y="500" width="80" height="80" as="geometry"/>
                </mxCell>
                <mxCell id="98" value="" style="edgeStyle=none;html=1;fontSize=12;elbow=vertical;entryX=0.25;entryY=0;entryDx=0;entryDy=0;" edge="1" parent="1" target="109">
                    <mxGeometry relative="1" as="geometry">
                        <mxPoint x="1081.5800000000002" y="580" as="sourcePoint"/>
                        <mxPoint x="1102" y="700" as="targetPoint"/>
                        <Array as="points"/>
                    </mxGeometry>
                </mxCell>
                <mxCell id="99" value="Yes" style="edgeLabel;html=1;align=center;verticalAlign=middle;resizable=0;points=[];fontSize=12;" vertex="1" connectable="0" parent="98">
                    <mxGeometry x="-0.2208" y="-1" relative="1" as="geometry">
                        <mxPoint as="offset"/>
                    </mxGeometry>
                </mxCell>
                <mxCell id="100" value="Is Valid&lt;br&gt;Reject&lt;br&gt;Welder" style="rhombus;whiteSpace=wrap;html=1;fontSize=12;" vertex="1" parent="1">
                    <mxGeometry x="1212" y="500" width="80" height="80" as="geometry"/>
                </mxCell>
                <mxCell id="104" value="" style="edgeStyle=none;html=1;fontSize=12;elbow=vertical;entryX=0.75;entryY=0;entryDx=0;entryDy=0;exitX=0.5;exitY=1;exitDx=0;exitDy=0;" edge="1" parent="1" source="100" target="109">
                    <mxGeometry relative="1" as="geometry">
                        <mxPoint x="1291.58" y="580" as="sourcePoint"/>
                        <mxPoint x="1291.58" y="660" as="targetPoint"/>
                    </mxGeometry>
                </mxCell>
                <mxCell id="105" value="Yes" style="edgeLabel;html=1;align=center;verticalAlign=middle;resizable=0;points=[];fontSize=12;" vertex="1" connectable="0" parent="104">
                    <mxGeometry x="-0.2208" y="-1" relative="1" as="geometry">
                        <mxPoint as="offset"/>
                    </mxGeometry>
                </mxCell>
                <mxCell id="106" value="" style="edgeStyle=orthogonalEdgeStyle;html=1;fontSize=12;elbow=vertical;" edge="1" parent="1">
                    <mxGeometry relative="1" as="geometry">
                        <mxPoint x="1292" y="539.5799999999999" as="sourcePoint"/>
                        <mxPoint x="1372" y="539.5799999999999" as="targetPoint"/>
                    </mxGeometry>
                </mxCell>
                <mxCell id="107" value="No" style="edgeLabel;html=1;align=center;verticalAlign=middle;resizable=0;points=[];fontSize=12;" vertex="1" connectable="0" parent="106">
                    <mxGeometry x="0.2917" relative="1" as="geometry">
                        <mxPoint x="-12" as="offset"/>
                    </mxGeometry>
                </mxCell>
                <mxCell id="108" value="Invalid&lt;br&gt;Welder, Emp" style="ellipse;whiteSpace=wrap;html=1;fillColor=#a20025;fontColor=#ffffff;strokeColor=#6F0000;" vertex="1" parent="1">
                    <mxGeometry x="1372" y="500" width="80" height="80" as="geometry"/>
                </mxCell>
                <mxCell id="111" style="html=1;exitX=0.5;exitY=1;exitDx=0;exitDy=0;entryX=0.5;entryY=0;entryDx=0;entryDy=0;fontSize=12;elbow=vertical;" edge="1" parent="1" source="109" target="85">
                    <mxGeometry relative="1" as="geometry"/>
                </mxCell>
                <mxCell id="109" value="Update End Date&lt;br&gt;by last Welder ID" style="whiteSpace=wrap;html=1;" vertex="1" parent="1">
                    <mxGeometry x="1102" y="650" width="120" height="60" as="geometry"/>
                </mxCell>
            </root>
        </mxGraphModel>
    </diagram>
</mxfile>